# xmcd
#
# Track frame offsets:
#	150
#	18243
#	29907
#	49030
#	67980
#	79126
#	101271
#	117426
#	160527
#	179415
#	196476
# Disc length: 2839 seconds
# Revision: 1
# Processed by: cddbd v1.5.1PL2 Copyright (c) Steve Scherf et al.
#
# Submitted via: libkcddb 0.31
#
DISCID=8a0b150b
DTITLE=Mississippi Mudsharks - Train Rolls On
DYEAR=2006
DGENRE=Bluesrock
TTITLE0=Train Rolls On
TTITLE1=Crimson Sky
TTITLE2=Throw It In the Hole
TTITLE3=30 Weight Shuffle
TTITLE4=Lakeside Redneck Shindig
TTITLE5=Hangin' Tree
TTITLE6=Devil's Road
TTITLE7=Can't Put Down the Drink
TTITLE8=Zombie Whip
TTITLE9=Down the Line
TTITLE10=Slow Rollin'
EXTD=
EXTT0=
EXTT1=
EXTT2=
EXTT3=
EXTT4=
EXTT5=
EXTT6=
EXTT7=
EXTT8=
EXTT9=
EXTT10=
PLAYORDER=
